<svg xmlns="http://www.w3.org/2000/svg" xmlns:xlink="http://www.w3.org/1999/xlink" width="1000" zoomAndPan="magnify" viewBox="0 0 750 172.499995" height="230" preserveAspectRatio="xMidYMid meet" version="1.0"><defs><g/><clipPath id="c72df45ce5"><path d="M 1.082031 0 L 748.914062 0 L 748.914062 172 L 1.082031 172 Z M 1.082031 0 " clip-rule="nonzero"/></clipPath><clipPath id="cd10240437"><path d="M 4 14 L 107 14 L 107 100 L 4 100 Z M 4 14 " clip-rule="nonzero"/></clipPath><clipPath id="776b3e6449"><path d="M 0.683594 33.0625 L 102.148438 12.628906 L 117.0625 86.671875 L 15.59375 107.105469 Z M 0.683594 33.0625 " clip-rule="nonzero"/></clipPath><clipPath id="aefcf3fb59"><path d="M 0.683594 33.0625 L 102.148438 12.628906 L 117.0625 86.671875 L 15.59375 107.105469 Z M 0.683594 33.0625 " clip-rule="nonzero"/></clipPath><clipPath id="c0aa1a0cc5"><path d="M 15 0.351562 L 731.78125 0.351562 L 731.78125 165.949219 L 15 165.949219 Z M 15 0.351562 " clip-rule="nonzero"/></clipPath><clipPath id="694beeac6d"><rect x="0" width="717" y="0" height="166"/></clipPath><clipPath id="9ec09bab59"><rect x="0" width="732" y="0" height="166"/></clipPath></defs><g clip-path="url(#c72df45ce5)"><path fill="#ffffff" d="M 1.082031 0 L 748.917969 0 L 748.917969 172 L 1.082031 172 Z M 1.082031 0 " fill-opacity="1" fill-rule="nonzero"/><path fill="#ffffff" d="M 1.082031 0 L 748.917969 0 L 748.917969 172 L 1.082031 172 Z M 1.082031 0 " fill-opacity="1" fill-rule="nonzero"/></g><g transform="matrix(1, 0, 0, 1, 9, 3)"><g clip-path="url(#9ec09bab59)"><g clip-path="url(#cd10240437)"><g clip-path="url(#776b3e6449)"><g clip-path="url(#aefcf3fb59)"><path fill="#261e17" d="M 102.425781 23.304688 C 109.890625 37.765625 107.066406 54.371094 96.058594 65.800781 C 95.054688 67.683594 97 69.519531 97.53125 71.191406 C 98.726562 74.929688 99.664062 78.703125 99.992188 82.726562 C 100.417969 87.945312 81.105469 93.402344 76.839844 94.59375 C 65.191406 97.839844 46.828125 101.035156 34.785156 99.625 C 32.9375 99.410156 30.199219 98.597656 29.539062 96.765625 C 28.199219 93.058594 27.503906 89.21875 27.308594 85.328125 C 27.226562 83.632812 28.351562 81.371094 26.800781 79.972656 C 25.347656 78.667969 23.195312 78.253906 21.425781 77.148438 C 6.039062 67.5625 0.851562 49.414062 5.914062 32.601562 C 6.128906 31.898438 7.027344 31.753906 7.441406 31.726562 C 9.433594 31.605469 8.902344 37.25 13.738281 45.003906 C 18.351562 52.402344 25.277344 57.59375 34.007812 59.285156 C 37.441406 53.59375 42.792969 50.457031 48.066406 46.972656 C 50.136719 45.605469 45.867188 43.984375 59.03125 41.90625 C 61.003906 41.59375 62.214844 43.195312 63.429688 44.054688 C 69.738281 44.832031 75.789062 45.921875 81.261719 49.863281 C 92.070312 42.78125 96.832031 28.609375 94.320312 16.371094 C 94.140625 15.511719 94.144531 14.917969 94.589844 14.441406 C 96.851562 12.015625 101.160156 20.839844 102.429688 23.300781 Z M 27.480469 76.457031 C 28.921875 77.101562 29.964844 77.476562 31.28125 76.039062 C 34.214844 72.546875 35.433594 67.980469 34.554688 63.070312 C 22.335938 60.671875 12.808594 52.714844 7.867188 41.238281 C 5.625 56.472656 13.785156 70.355469 27.480469 76.457031 Z M 92.398438 64.621094 C 103.875 53.882812 106.640625 36.0625 98.480469 23.558594 C 97.988281 35.863281 92.734375 46.363281 82.488281 53.269531 C 83.117188 58.507812 86.914062 63.355469 92.402344 64.621094 Z M 94.722656 84.203125 C 98.070312 82.363281 95.925781 79.691406 94.941406 74.644531 C 90.308594 77.183594 85.863281 79.28125 80.789062 80.796875 L 70.328125 83.925781 C 69.042969 84.3125 68.03125 83.753906 67.761719 82.445312 L 60.210938 45.585938 C 57.160156 45.503906 54.402344 45.886719 51.886719 47.179688 L 59.292969 84.136719 C 59.507812 85.214844 59.101562 86.285156 57.84375 86.449219 C 50.050781 87.492188 42.457031 88.171875 34.652344 88.015625 C 33.375 87.988281 32.382812 87.3125 30.925781 87.878906 C 31.476562 90.265625 31.4375 93.21875 32.625 95.429688 C 36.738281 97.667969 50.21875 96.257812 55.207031 95.582031 C 67.597656 93.898438 83.703125 90.269531 94.726562 84.203125 Z M 32.300781 84.277344 C 40.335938 85.25 47.792969 84.339844 55.277344 83.28125 C 55.371094 82.082031 55.347656 81.269531 55.128906 80.191406 L 49.390625 52.011719 C 49.296875 51.550781 48.957031 51.105469 48.839844 50.925781 C 48.722656 50.742188 38.773438 56.210938 37.984375 60.632812 C 37.597656 62.789062 40.871094 73.859375 30.972656 80.476562 C 30.453125 81.394531 30.828125 84.101562 32.300781 84.277344 Z M 91.5625 67.949219 C 84.296875 66.414062 78.789062 58.433594 78.644531 52.070312 C 74.125 49.417969 69.5625 47.933594 64.296875 47.796875 L 70.863281 80.273438 C 77.433594 78.472656 87.984375 75.453125 92.875 71.6875 C 93.960938 70.851562 92.875 68.222656 91.5625 67.949219 Z M 91.5625 67.949219 " fill-opacity="1" fill-rule="nonzero"/></g></g></g><g clip-path="url(#c0aa1a0cc5)"><g transform="matrix(1, 0, 0, 1, 15, 0)"><g clip-path="url(#694beeac6d)"><g fill="#34291f" fill-opacity="1"><g transform="translate(0.910129, 123.870433)"><g><path d="M 46.5625 0.828125 C 38.757812 0.828125 31.609375 -0.984375 25.109375 -4.609375 C 18.609375 -8.234375 13.445312 -13.296875 9.625 -19.796875 C 5.8125 -26.296875 3.90625 -33.601562 3.90625 -41.71875 C 3.90625 -49.832031 5.8125 -57.117188 9.625 -63.578125 C 13.445312 -70.035156 18.609375 -75.078125 25.109375 -78.703125 C 31.609375 -82.328125 38.757812 -84.140625 46.5625 -84.140625 C 54.363281 -84.140625 61.507812 -82.328125 68 -78.703125 C 74.5 -75.078125 79.617188 -70.035156 83.359375 -63.578125 C 87.109375 -57.117188 88.984375 -49.832031 88.984375 -41.71875 C 88.984375 -33.601562 87.09375 -26.296875 83.3125 -19.796875 C 79.53125 -13.296875 74.410156 -8.234375 67.953125 -4.609375 C 61.492188 -0.984375 54.363281 0.828125 46.5625 0.828125 Z M 46.5625 -17.609375 C 53.175781 -17.609375 58.472656 -19.8125 62.453125 -24.21875 C 66.429688 -28.632812 68.421875 -34.46875 68.421875 -41.71875 C 68.421875 -49.039062 66.429688 -54.890625 62.453125 -59.265625 C 58.472656 -63.640625 53.175781 -65.828125 46.5625 -65.828125 C 39.863281 -65.828125 34.523438 -63.660156 30.546875 -59.328125 C 26.566406 -54.992188 24.578125 -49.125 24.578125 -41.71875 C 24.578125 -34.382812 26.566406 -28.53125 30.546875 -24.15625 C 34.523438 -19.789062 39.863281 -17.609375 46.5625 -17.609375 Z M 46.5625 -17.609375 "/></g></g></g><g fill="#34291f" fill-opacity="1"><g transform="translate(93.791174, 123.870433)"><g><path d="M 3.3125 -33.09375 C 3.3125 -39.863281 4.585938 -45.804688 7.140625 -50.921875 C 9.703125 -56.046875 13.1875 -59.988281 17.59375 -62.75 C 22.007812 -65.507812 26.9375 -66.890625 32.375 -66.890625 C 36.707031 -66.890625 40.664062 -65.984375 44.25 -64.171875 C 47.832031 -62.359375 50.648438 -59.914062 52.703125 -56.84375 L 52.703125 -87.453125 L 72.90625 -87.453125 L 72.90625 0 L 52.703125 0 L 52.703125 -9.453125 C 50.816406 -6.304688 48.117188 -3.785156 44.609375 -1.890625 C 41.097656 0.00390625 37.019531 0.953125 32.375 0.953125 C 26.9375 0.953125 22.007812 -0.441406 17.59375 -3.234375 C 13.1875 -6.035156 9.703125 -10.015625 7.140625 -15.171875 C 4.585938 -20.335938 3.3125 -26.3125 3.3125 -33.09375 Z M 52.703125 -32.96875 C 52.703125 -38.007812 51.300781 -41.988281 48.5 -44.90625 C 45.707031 -47.820312 42.300781 -49.28125 38.28125 -49.28125 C 34.269531 -49.28125 30.863281 -47.84375 28.0625 -44.96875 C 25.269531 -42.09375 23.875 -38.132812 23.875 -33.09375 C 23.875 -28.050781 25.269531 -24.050781 28.0625 -21.09375 C 30.863281 -18.132812 34.269531 -16.65625 38.28125 -16.65625 C 42.300781 -16.65625 45.707031 -18.113281 48.5 -21.03125 C 51.300781 -23.945312 52.703125 -27.925781 52.703125 -32.96875 Z M 52.703125 -32.96875 "/></g></g></g><g fill="#34291f" fill-opacity="1"><g transform="translate(174.028107, 123.870433)"><g><path d="M 17.484375 -72.796875 C 13.941406 -72.796875 11.046875 -73.835938 8.796875 -75.921875 C 6.554688 -78.015625 5.4375 -80.597656 5.4375 -83.671875 C 5.4375 -86.816406 6.554688 -89.429688 8.796875 -91.515625 C 11.046875 -93.609375 13.941406 -94.65625 17.484375 -94.65625 C 20.953125 -94.65625 23.804688 -93.609375 26.046875 -91.515625 C 28.296875 -89.429688 29.421875 -86.816406 29.421875 -83.671875 C 29.421875 -80.597656 28.296875 -78.015625 26.046875 -75.921875 C 23.804688 -73.835938 20.953125 -72.796875 17.484375 -72.796875 Z M 27.53125 -65.9375 L 27.53125 0 L 7.328125 0 L 7.328125 -65.9375 Z M 27.53125 -65.9375 "/></g></g></g><g fill="#34291f" fill-opacity="1"><g transform="translate(208.888029, 123.870433)"><g><path d="M 47.5 -66.65625 C 55.226562 -66.65625 61.394531 -64.148438 66 -59.140625 C 70.601562 -54.140625 72.90625 -47.269531 72.90625 -38.53125 L 72.90625 0 L 52.828125 0 L 52.828125 -35.8125 C 52.828125 -40.21875 51.679688 -43.640625 49.390625 -46.078125 C 47.109375 -48.523438 44.035156 -49.75 40.171875 -49.75 C 36.316406 -49.75 33.242188 -48.523438 30.953125 -46.078125 C 28.671875 -43.640625 27.53125 -40.21875 27.53125 -35.8125 L 27.53125 0 L 7.328125 0 L 7.328125 -65.9375 L 27.53125 -65.9375 L 27.53125 -57.1875 C 29.582031 -60.101562 32.335938 -62.410156 35.796875 -64.109375 C 39.265625 -65.804688 43.164062 -66.65625 47.5 -66.65625 Z M 47.5 -66.65625 "/></g></g></g><g fill="#34291f" fill-opacity="1"><g transform="translate(288.534134, 123.870433)"><g/></g></g><g fill="#34291f" fill-opacity="1"><g transform="translate(313.597516, 123.870433)"><g><path d="M 51.515625 0 L 32.609375 -32.859375 L 22.328125 -32.859375 L 22.328125 0 L 8.859375 0 L 8.859375 -82.125 L 37.21875 -82.125 C 43.519531 -82.125 48.859375 -81.019531 53.234375 -78.8125 C 57.609375 -76.613281 60.878906 -73.660156 63.046875 -69.953125 C 65.210938 -66.253906 66.296875 -62.117188 66.296875 -57.546875 C 66.296875 -52.191406 64.738281 -47.328125 61.625 -42.953125 C 58.507812 -38.578125 53.722656 -35.601562 47.265625 -34.03125 L 67.59375 0 Z M 22.328125 -43.609375 L 37.21875 -43.609375 C 42.257812 -43.609375 46.0625 -44.867188 48.625 -47.390625 C 51.1875 -49.910156 52.46875 -53.296875 52.46875 -57.546875 C 52.46875 -61.804688 51.207031 -65.132812 48.6875 -67.53125 C 46.164062 -69.9375 42.34375 -71.140625 37.21875 -71.140625 L 22.328125 -71.140625 Z M 22.328125 -43.609375 "/></g></g></g><g fill="#34291f" fill-opacity="1"><g transform="translate(388.280491, 123.870433)"><g><path d="M 68.546875 -34.15625 C 68.546875 -31.707031 68.382812 -29.5 68.0625 -27.53125 L 18.3125 -27.53125 C 18.707031 -22.332031 20.640625 -18.15625 24.109375 -15 C 27.578125 -11.851562 31.832031 -10.28125 36.875 -10.28125 C 44.113281 -10.28125 49.234375 -13.3125 52.234375 -19.375 L 66.765625 -19.375 C 64.796875 -13.394531 61.226562 -8.492188 56.0625 -4.671875 C 50.90625 -0.847656 44.507812 1.0625 36.875 1.0625 C 30.644531 1.0625 25.066406 -0.332031 20.140625 -3.125 C 15.222656 -5.925781 11.363281 -9.867188 8.5625 -14.953125 C 5.769531 -20.035156 4.375 -25.921875 4.375 -32.609375 C 4.375 -39.304688 5.734375 -45.195312 8.453125 -50.28125 C 11.171875 -55.363281 14.988281 -59.28125 19.90625 -62.03125 C 24.832031 -64.789062 30.488281 -66.171875 36.875 -66.171875 C 43.019531 -66.171875 48.492188 -64.832031 53.296875 -62.15625 C 58.097656 -59.476562 61.835938 -55.71875 64.515625 -50.875 C 67.203125 -46.03125 68.546875 -40.457031 68.546875 -34.15625 Z M 54.484375 -38.40625 C 54.398438 -43.363281 52.625 -47.335938 49.15625 -50.328125 C 45.6875 -53.328125 41.394531 -54.828125 36.28125 -54.828125 C 31.632812 -54.828125 27.65625 -53.347656 24.34375 -50.390625 C 21.03125 -47.441406 19.0625 -43.445312 18.4375 -38.40625 Z M 54.484375 -38.40625 "/></g></g></g><g fill="#34291f" fill-opacity="1"><g transform="translate(461.190923, 123.870433)"><g><path d="M 4.375 -32.609375 C 4.375 -39.304688 5.734375 -45.195312 8.453125 -50.28125 C 11.171875 -55.363281 14.929688 -59.28125 19.734375 -62.03125 C 24.535156 -64.789062 30.050781 -66.171875 36.28125 -66.171875 C 44.15625 -66.171875 50.671875 -64.300781 55.828125 -60.5625 C 60.992188 -56.820312 64.484375 -51.484375 66.296875 -44.546875 L 51.765625 -44.546875 C 50.578125 -47.773438 48.679688 -50.296875 46.078125 -52.109375 C 43.484375 -53.921875 40.21875 -54.828125 36.28125 -54.828125 C 30.757812 -54.828125 26.363281 -52.875 23.09375 -48.96875 C 19.832031 -45.070312 18.203125 -39.617188 18.203125 -32.609375 C 18.203125 -25.597656 19.832031 -20.125 23.09375 -16.1875 C 26.363281 -12.25 30.757812 -10.28125 36.28125 -10.28125 C 44.082031 -10.28125 49.242188 -13.707031 51.765625 -20.5625 L 66.296875 -20.5625 C 64.398438 -13.945312 60.851562 -8.6875 55.65625 -4.78125 C 50.457031 -0.882812 44 1.0625 36.28125 1.0625 C 30.050781 1.0625 24.535156 -0.332031 19.734375 -3.125 C 14.929688 -5.925781 11.171875 -9.867188 8.453125 -14.953125 C 5.734375 -20.035156 4.375 -25.921875 4.375 -32.609375 Z M 4.375 -32.609375 "/></g></g></g><g fill="#34291f" fill-opacity="1"><g transform="translate(532.092493, 123.870433)"><g><path d="M 15.71875 -73.734375 C 13.269531 -73.734375 11.21875 -74.5625 9.5625 -76.21875 C 7.914062 -77.875 7.09375 -79.921875 7.09375 -82.359375 C 7.09375 -84.804688 7.914062 -86.859375 9.5625 -88.515625 C 11.21875 -90.171875 13.269531 -91 15.71875 -91 C 18.082031 -91 20.085938 -90.171875 21.734375 -88.515625 C 23.390625 -86.859375 24.21875 -84.804688 24.21875 -82.359375 C 24.21875 -79.921875 23.390625 -77.875 21.734375 -76.21875 C 20.085938 -74.5625 18.082031 -73.734375 15.71875 -73.734375 Z M 22.328125 -65.109375 L 22.328125 0 L 8.859375 0 L 8.859375 -65.109375 Z M 22.328125 -65.109375 "/></g></g></g><g fill="#34291f" fill-opacity="1"><g transform="translate(563.289159, 123.870433)"><g><path d="M 22.328125 -55.546875 C 24.617188 -58.535156 27.734375 -61.050781 31.671875 -63.09375 C 35.609375 -65.144531 40.0625 -66.171875 45.03125 -66.171875 C 50.695312 -66.171875 55.875 -64.769531 60.5625 -61.96875 C 65.25 -59.175781 68.929688 -55.257812 71.609375 -50.21875 C 74.285156 -45.175781 75.625 -39.390625 75.625 -32.859375 C 75.625 -26.316406 74.285156 -20.460938 71.609375 -15.296875 C 68.929688 -10.140625 65.25 -6.125 60.5625 -3.25 C 55.875 -0.375 50.695312 1.0625 45.03125 1.0625 C 40.0625 1.0625 35.644531 0.0546875 31.78125 -1.953125 C 27.925781 -3.960938 24.773438 -6.460938 22.328125 -9.453125 L 22.328125 30.96875 L 8.859375 30.96875 L 8.859375 -65.109375 L 22.328125 -65.109375 Z M 61.921875 -32.859375 C 61.921875 -37.347656 60.992188 -41.222656 59.140625 -44.484375 C 57.296875 -47.753906 54.851562 -50.238281 51.8125 -51.9375 C 48.78125 -53.632812 45.53125 -54.484375 42.0625 -54.484375 C 38.675781 -54.484375 35.46875 -53.613281 32.4375 -51.875 C 29.40625 -50.144531 26.960938 -47.625 25.109375 -44.3125 C 23.253906 -41 22.328125 -37.097656 22.328125 -32.609375 C 22.328125 -28.117188 23.253906 -24.195312 25.109375 -20.84375 C 26.960938 -17.5 29.40625 -14.960938 32.4375 -13.234375 C 35.46875 -11.503906 38.675781 -10.640625 42.0625 -10.640625 C 45.53125 -10.640625 48.78125 -11.523438 51.8125 -13.296875 C 54.851562 -15.066406 57.296875 -17.644531 59.140625 -21.03125 C 60.992188 -24.414062 61.921875 -28.359375 61.921875 -32.859375 Z M 61.921875 -32.859375 "/></g></g></g><g fill="#34291f" fill-opacity="1"><g transform="translate(643.40793, 123.870433)"><g><path d="M 68.546875 -34.15625 C 68.546875 -31.707031 68.382812 -29.5 68.0625 -27.53125 L 18.3125 -27.53125 C 18.707031 -22.332031 20.640625 -18.15625 24.109375 -15 C 27.578125 -11.851562 31.832031 -10.28125 36.875 -10.28125 C 44.113281 -10.28125 49.234375 -13.3125 52.234375 -19.375 L 66.765625 -19.375 C 64.796875 -13.394531 61.226562 -8.492188 56.0625 -4.671875 C 50.90625 -0.847656 44.507812 1.0625 36.875 1.0625 C 30.644531 1.0625 25.066406 -0.332031 20.140625 -3.125 C 15.222656 -5.925781 11.363281 -9.867188 8.5625 -14.953125 C 5.769531 -20.035156 4.375 -25.921875 4.375 -32.609375 C 4.375 -39.304688 5.734375 -45.195312 8.453125 -50.28125 C 11.171875 -55.363281 14.988281 -59.28125 19.90625 -62.03125 C 24.832031 -64.789062 30.488281 -66.171875 36.875 -66.171875 C 43.019531 -66.171875 48.492188 -64.832031 53.296875 -62.15625 C 58.097656 -59.476562 61.835938 -55.71875 64.515625 -50.875 C 67.203125 -46.03125 68.546875 -40.457031 68.546875 -34.15625 Z M 54.484375 -38.40625 C 54.398438 -43.363281 52.625 -47.335938 49.15625 -50.328125 C 45.6875 -53.328125 41.394531 -54.828125 36.28125 -54.828125 C 31.632812 -54.828125 27.65625 -53.347656 24.34375 -50.390625 C 21.03125 -47.441406 19.0625 -43.445312 18.4375 -38.40625 Z M 54.484375 -38.40625 "/></g></g></g></g></g></g></g></g></svg>